<?xml version="1.0" standalone="no"?>
<!DOCTYPE svg PUBLIC "-//W3C//DTD SVG 20010904//EN"
 "http://www.w3.org/TR/2001/REC-SVG-20010904/DTD/svg10.dtd">
<svg version="1.0" xmlns="http://www.w3.org/2000/svg"
 width="587.000000pt" height="558.000000pt" viewBox="0 0 587.000000 558.000000"
 preserveAspectRatio="xMidYMid meet">

<g transform="translate(0.000000,558.000000) scale(0.100000,-0.100000)"
fill="#000000" stroke="none">
<path d="M2815 5393 c-91 -19 -221 -96 -281 -166 -25 -30 -138 -243 -319 -604
-273 -544 -281 -559 -329 -595 -29 -21 -75 -43 -110 -53 -34 -9 -308 -51 -611
-95 -568 -82 -636 -96 -717 -150 -245 -165 -311 -490 -148 -730 21 -30 78 -93
126 -140 355 -338 759 -741 780 -776 51 -87 50 -113 -20 -514 -111 -641 -136
-800 -136 -865 0 -137 55 -259 160 -359 105 -98 220 -146 355 -146 131 0 168
15 705 300 91 48 259 136 374 195 l209 107 81 -4 c96 -5 46 18 636 -293 561
-296 583 -305 715 -305 231 1 434 156 500 383 24 82 16 205 -28 457 -20 113
-50 286 -67 385 -17 99 -42 243 -56 320 -32 170 -30 257 6 328 18 36 112 134
360 375 540 526 544 530 579 599 156 311 -2 665 -334 748 -57 14 -323 54 -870
130 -137 20 -268 40 -290 46 -63 17 -134 60 -166 100 -16 20 -149 278 -295
574 -262 530 -266 537 -332 603 -70 70 -159 122 -244 142 -42 9 -194 12 -233
3z m250 -237 c31 -16 69 -45 89 -69 19 -24 154 -284 300 -580 259 -524 268
-539 330 -601 71 -72 177 -130 266 -146 30 -6 195 -31 365 -55 904 -130 849
-118 932 -207 120 -131 105 -319 -36 -450 -31 -28 -148 -142 -261 -252 -603
-589 -590 -575 -630 -695 -44 -133 -43 -141 111 -1011 62 -347 67 -429 29
-503 -47 -94 -144 -160 -251 -173 -71 -8 -133 13 -314 109 -501 264 -816 429
-858 447 -74 33 -183 53 -249 45 -121 -13 -97 -2 -843 -393 -419 -219 -388
-206 -474 -206 -56 0 -88 5 -122 21 -103 46 -177 147 -186 252 -3 35 3 98 16
166 11 61 34 189 50 285 16 96 53 308 81 470 58 332 60 388 15 505 -45 121
-21 95 -736 790 -244 237 -264 266 -263 385 0 173 117 292 309 315 33 3 137
18 230 31 94 14 249 36 345 50 525 74 569 84 667 146 119 75 131 94 420 678
146 294 278 552 294 572 83 105 245 137 374 74z"/>
<path d="M2027 3469 c-22 -13 -47 -61 -47 -91 0 -52 34 -83 139 -129 56 -24
101 -47 101 -50 0 -4 -35 -22 -77 -39 -130 -53 -163 -82 -163 -141 0 -58 72
-118 126 -105 21 6 336 142 430 187 45 21 64 52 64 105 0 57 -35 81 -266 182
-213 93 -264 106 -307 81z"/>
<path d="M3615 3439 c-49 -22 -110 -48 -135 -59 -123 -50 -219 -100 -234 -121
-9 -13 -16 -40 -16 -61 0 -64 31 -86 278 -193 184 -79 230 -96 256 -91 70 13
106 100 68 161 -14 23 -44 41 -120 74 -56 24 -102 47 -102 51 0 3 36 21 79 38
44 18 94 43 112 55 57 38 64 113 14 163 -36 36 -91 31 -200 -17z"/>
<path d="M1932 2507 c-68 -39 -71 -104 -10 -218 133 -249 357 -421 653 -501
117 -31 125 -32 330 -32 193 1 218 3 306 26 210 57 347 130 482 258 97 92 176
200 213 291 37 90 29 140 -26 172 -63 37 -127 9 -161 -70 -95 -222 -318 -394
-579 -446 -460 -92 -878 79 -1041 427 -16 35 -38 71 -49 81 -24 22 -89 29
-118 12z"/>
</g>
</svg>
